<svg width="664" height="579" viewBox="0 0 664 579" fill="none" xmlns="http://www.w3.org/2000/svg">
<g clip-path="url(#clip0_1070_478)">
<path d="M372.5 169H338.5V228H372.5V169Z" fill="#7F7F7F"/>
<path d="M446 194H265V228H446V194Z" fill="#7F7F7F"/>
<path d="M299 194H265V244H299V194Z" fill="#7F7F7F"/>
<path d="M446 194H412V284H446V194Z" fill="#7F7F7F"/>
<path d="M467 250H391V284H467V250Z" fill="#7F7F7F"/>
<path d="M314 296H250V337H314V296Z" fill="#FF0000"/>
<path d="M299 244H265V278H299V244Z" fill="#FF0000"/>
<path d="M425 284H391V318H425V284Z" fill="#00FF00"/>
<path d="M467 284H433V318H467V284Z" fill="#0000FF"/>
<path d="M282 413.5C319.279 413.5 349.5 383.279 349.5 346C349.5 308.721 319.279 278.5 282 278.5C244.721 278.5 214.5 308.721 214.5 346C214.5 383.279 244.721 413.5 282 413.5Z" stroke="black" stroke-width="35"/>
<path d="M337 401L382 451" stroke="black" stroke-width="30"/>
<mask id="mask0_1070_478" style="mask-type:luminance" maskUnits="userSpaceOnUse" x="368" y="298" width="115" height="86">
<path d="M453.733 327.023L425.449 298.739L368.881 355.307L397.165 383.592L453.733 327.023Z" fill="white"/>
<path d="M482.018 355.307L425.449 298.739L397.165 327.023L453.733 383.592L482.018 355.307Z" fill="white"/>
</mask>
<g mask="url(#mask0_1070_478)">
<path d="M427 380C440.255 380 451 369.255 451 356C451 342.745 440.255 332 427 332C413.745 332 403 342.745 403 356C403 369.255 413.745 380 427 380Z" stroke="black" stroke-width="12"/>
</g>
<path d="M444 373L402 415" stroke="black" stroke-width="12"/>
<path d="M398 416H457" stroke="black" stroke-width="12"/>
</g>
<path d="M110.363 405.576L114.533 403.706L120.608 417.249L116.438 419.12L110.363 405.576ZM105.159 422.274L131.105 410.635L133.503 415.981L107.557 427.62L105.159 422.274ZM98.0844 406.502L124.031 394.864L126.421 400.192L100.474 411.831L98.0844 406.502Z" fill="black"/>
<path d="M98.8943 386.139L119.01 379.664L120.74 385.037L100.624 391.512L98.8943 386.139ZM95.4889 393.535C94.7081 393.786 93.9758 393.721 93.292 393.339C92.6083 392.958 92.1188 392.308 91.8235 391.391C91.5323 390.486 91.5529 389.679 91.8855 388.97C92.2142 388.249 92.7689 387.763 93.5497 387.511C94.3306 387.26 95.0649 387.331 95.7526 387.725C96.4363 388.107 96.9238 388.75 97.2151 389.655C97.5104 390.572 97.4917 391.385 97.1591 392.094C96.8265 392.803 96.2698 393.284 95.4889 393.535Z" fill="black"/>
<path d="M92.6878 361.835L91.6028 356.854L111.564 352.506C113.447 352.096 115.136 352.168 116.629 352.722C118.132 353.261 119.383 354.201 120.382 355.543C121.393 356.882 122.113 358.537 122.543 360.509C122.731 361.375 122.816 362.315 122.798 363.332C122.777 364.336 122.62 365.33 122.328 366.313C122.033 367.284 121.58 368.142 120.97 368.888L117.197 367.171C117.797 366.374 118.208 365.511 118.433 364.583C118.67 363.652 118.677 362.677 118.456 361.659C118.239 360.667 117.872 359.868 117.353 359.261C116.848 358.652 116.205 358.239 115.424 358.022C114.657 357.803 113.784 357.8 112.804 358.013L97.5751 361.33L92.6878 361.835ZM106.286 373.425L105.886 373.513C104.308 373.856 102.835 373.977 101.467 373.875C100.083 373.764 98.8496 373.453 97.7657 372.942C96.679 372.42 95.769 371.698 95.0356 370.779C94.3022 369.859 93.7942 368.75 93.5116 367.453C93.2123 366.079 93.2159 364.872 93.5225 363.832C93.8291 362.793 94.3881 361.871 95.1993 361.068C95.9978 360.268 96.9971 359.564 98.1973 358.956C99.382 358.338 100.704 357.77 102.164 357.252L103.042 357.061C104.521 356.939 105.919 356.934 107.236 357.047C108.554 357.16 109.745 357.427 110.809 357.848C111.861 358.272 112.742 358.893 113.454 359.711C114.162 360.516 114.655 361.555 114.932 362.827C115.209 364.099 115.199 365.307 114.902 366.451C114.602 367.583 114.06 368.614 113.277 369.544C112.493 370.474 111.508 371.275 110.322 371.947C109.133 372.605 107.788 373.098 106.286 373.425ZM104.688 368.016L105.089 367.929C105.942 367.743 106.719 367.488 107.421 367.161C108.122 366.835 108.722 366.438 109.22 365.97C109.702 365.492 110.045 364.957 110.25 364.366C110.439 363.765 110.454 363.102 110.296 362.377C110.077 361.372 109.689 360.597 109.13 360.053C108.559 359.511 107.864 359.163 107.044 359.008C106.224 358.853 105.319 358.857 104.328 359.02L101.828 359.564C101.032 359.764 100.337 360.029 99.7422 360.359C99.1349 360.691 98.6396 361.078 98.2565 361.522C97.8733 361.965 97.614 362.488 97.4787 363.09C97.3434 363.693 97.3576 364.369 97.5211 365.12C97.679 365.845 97.9816 366.439 98.4288 366.901C98.8604 367.354 99.395 367.697 100.032 367.931C100.667 368.153 101.385 368.269 102.187 368.281C102.977 368.296 103.811 368.208 104.688 368.016Z" fill="black"/>
<path d="M80.4929 340.69L110.369 337.963L110.88 343.564L81.0043 346.292L80.4929 340.69ZM99.1797 339.788L99.32 341.325C97.8535 341.446 96.4872 341.374 95.221 341.111C93.9419 340.848 92.8165 340.409 91.8449 339.791C90.8603 339.175 90.0708 338.404 89.4763 337.477C88.8806 336.538 88.5283 335.472 88.4194 334.279C88.3247 333.242 88.388 332.288 88.6093 331.418C88.8164 330.536 89.2163 329.761 89.809 329.092C90.3876 328.412 91.1801 327.856 92.1867 327.424C93.1933 326.992 94.4357 326.709 95.9139 326.574L109.218 325.359L109.733 331L96.39 332.218C95.4564 332.303 94.7362 332.506 94.2294 332.827C93.7084 333.136 93.3608 333.553 93.1866 334.079C92.9982 334.593 92.9371 335.213 93.0034 335.939C93.0768 336.743 93.2886 337.417 93.639 337.96C93.9881 338.491 94.4439 338.9 95.0063 339.189C95.5558 339.479 96.1877 339.669 96.9021 339.761C97.6165 339.853 98.3757 339.862 99.1797 339.788Z" fill="black"/>
<path d="M94.8079 304.6L99.2213 304.675L99.0342 315.709L94.6208 315.634L94.8079 304.6Z" fill="black"/>
<path d="M106.657 282.423L81.4639 279.258L82.1698 273.638L111.936 277.377L111.301 282.435L106.657 282.423ZM99.3329 294.967L98.926 294.916C97.324 294.715 95.8933 294.351 94.6339 293.826C93.3615 293.298 92.2976 292.627 91.4422 291.811C90.5867 290.994 89.9646 290.044 89.5761 288.958C89.1875 287.873 89.0752 286.677 89.2391 285.373C89.3932 284.145 89.7863 283.105 90.4183 282.253C91.0519 281.388 91.8873 280.692 92.9244 280.166C93.9503 279.626 95.1344 279.237 96.4766 278.998C97.8059 278.758 99.2442 278.644 100.791 278.654L101.683 278.766C103.12 279.131 104.44 279.592 105.643 280.15C106.846 280.708 107.877 281.375 108.738 282.153C109.587 282.915 110.211 283.794 110.611 284.789C111.011 285.784 111.133 286.902 110.977 288.142C110.814 289.447 110.403 290.577 109.745 291.531C109.088 292.472 108.238 293.231 107.195 293.809C106.153 294.374 104.963 294.756 103.626 294.955C102.288 295.155 100.857 295.159 99.3329 294.967ZM99.627 289.335L100.034 289.386C100.9 289.495 101.715 289.531 102.481 289.496C103.248 289.448 103.942 289.306 104.562 289.069C105.171 288.817 105.669 288.46 106.055 287.997C106.43 287.519 106.664 286.912 106.756 286.175C106.876 285.219 106.762 284.404 106.414 283.731C106.052 283.055 105.511 282.508 104.789 282.09C104.069 281.658 103.215 281.354 102.226 281.177L99.6878 280.858C98.869 280.795 98.1245 280.819 97.4542 280.932C96.7726 281.03 96.1765 281.231 95.666 281.534C95.1571 281.825 94.7401 282.218 94.4152 282.716C94.0919 283.2 93.8856 283.797 93.7964 284.508C93.7055 285.231 93.7956 285.873 94.0666 286.432C94.3246 286.989 94.7176 287.465 95.2455 287.859C95.775 288.241 96.4176 288.558 97.1733 288.81C97.9177 289.048 98.7356 289.223 99.627 289.335Z" fill="black"/>
<path d="M94.5248 257.658L115.139 262.31L113.897 267.816L93.2823 263.164L94.5248 257.658ZM87.8322 262.295C87.032 262.114 86.4346 261.686 86.0399 261.009C85.6453 260.333 85.554 259.525 85.7661 258.585C85.9753 257.658 86.4033 256.974 87.0502 256.532C87.6999 256.078 88.4249 255.941 89.2251 256.122C90.0253 256.302 90.6213 256.737 91.0131 257.426C91.4077 258.103 91.5005 258.905 91.2912 259.832C91.0791 260.772 90.6497 261.462 90.0028 261.904C89.3559 262.345 88.6324 262.475 87.8322 262.295Z" fill="black"/>
<path d="M103.203 241.934L118.971 247.607L117.06 252.918L97.1755 245.764L98.9673 240.784L103.203 241.934ZM108.066 244.514L107.537 245.984C106.153 245.486 104.938 244.862 103.893 244.113C102.84 243.346 102.002 242.484 101.378 241.526C100.746 240.552 100.365 239.495 100.236 238.355C100.106 237.215 100.27 236.008 100.729 234.734C101.046 233.852 101.472 233.091 102.006 232.453C102.528 231.811 103.165 231.327 103.918 231.003C104.664 230.663 105.536 230.506 106.536 230.534C107.524 230.557 108.637 230.792 109.875 231.237L123.143 236.011L121.239 241.303L108.558 236.741C107.652 236.415 106.909 236.286 106.331 236.355C105.753 236.424 105.284 236.649 104.925 237.032C104.57 237.403 104.281 237.9 104.056 238.525C103.809 239.211 103.734 239.862 103.83 240.478C103.932 241.082 104.174 241.64 104.557 242.151C104.928 242.658 105.416 243.111 106.02 243.508C106.624 243.905 107.306 244.241 108.066 244.514ZM111.718 232.46L111.275 234.439C109.977 233.972 108.827 233.378 107.827 232.659C106.831 231.927 106.025 231.09 105.409 230.149C104.797 229.195 104.43 228.157 104.308 227.034C104.174 225.906 104.332 224.718 104.782 223.468C105.126 222.512 105.58 221.693 106.143 221.01C106.695 220.323 107.37 219.812 108.169 219.477C108.96 219.125 109.886 218.974 110.948 219.023C112.013 219.061 113.239 219.329 114.623 219.827L127.322 224.396L125.411 229.707L112.712 225.138C111.793 224.807 111.051 224.679 110.485 224.752C109.911 224.808 109.451 225.03 109.104 225.417C108.749 225.788 108.461 226.279 108.241 226.892C108.012 227.529 107.94 228.133 108.025 228.703C108.098 229.269 108.298 229.791 108.625 230.268C108.951 230.745 109.38 231.169 109.911 231.54C110.429 231.907 111.031 232.213 111.718 232.46Z" fill="black"/>
<path d="M136.405 207.852C135.628 209.297 134.702 210.47 133.627 211.371C132.541 212.265 131.369 212.892 130.112 213.251C128.86 213.599 127.576 213.692 126.258 213.531C124.929 213.364 123.645 212.947 122.407 212.282L121.718 211.912C120.307 211.154 119.125 210.26 118.171 209.23C117.216 208.2 116.509 207.081 116.05 205.873C115.596 204.654 115.43 203.382 115.55 202.057C115.659 200.726 116.077 199.384 116.805 198.031C117.513 196.712 118.36 195.659 119.344 194.872C120.328 194.086 121.407 193.564 122.58 193.307C123.758 193.039 125.005 193.029 126.321 193.277C127.624 193.519 128.958 194.007 130.323 194.74L132.388 195.85L124.438 210.646L121.135 208.871L126.469 198.944L126.09 198.741C125.402 198.371 124.72 198.167 124.046 198.13C123.366 198.075 122.733 198.208 122.147 198.529C121.56 198.849 121.061 199.394 120.648 200.162C120.297 200.816 120.138 201.455 120.172 202.079C120.206 202.704 120.401 203.304 120.757 203.879C121.119 204.443 121.61 204.988 122.23 205.513C122.844 206.02 123.564 206.496 124.39 206.94L125.078 207.309C125.824 207.71 126.567 207.977 127.309 208.109C128.057 208.23 128.765 208.219 129.433 208.075C130.108 207.92 130.722 207.63 131.277 207.203C131.837 206.765 132.312 206.185 132.7 205.462C133.18 204.568 133.455 203.644 133.524 202.69C133.587 201.719 133.415 200.762 133.005 199.818L136.915 198.814C137.267 199.506 137.52 200.329 137.672 201.283C137.831 202.226 137.824 203.256 137.651 204.376C137.467 205.489 137.052 206.648 136.405 207.852Z" fill="black"/>
<path d="M134.041 179.047L147.624 188.626L144.382 193.223L127.112 181.043L130.151 176.734L134.041 179.047ZM137.91 182.779L137.032 184.024C135.755 183.124 134.722 182.148 133.933 181.098C133.134 180.04 132.582 178.958 132.279 177.852C131.965 176.738 131.905 175.637 132.1 174.547C132.292 173.439 132.748 172.375 133.468 171.353C134.038 170.545 134.677 169.888 135.384 169.382C136.091 168.877 136.869 168.565 137.717 168.447C138.573 168.317 139.511 168.421 140.532 168.759C141.56 169.086 142.681 169.677 143.894 170.532L154.907 178.3L151.643 182.928L140.614 175.15C139.847 174.61 139.176 174.296 138.601 174.208C138.025 174.121 137.506 174.225 137.043 174.52C136.577 174.796 136.134 175.233 135.713 175.829C135.278 176.446 135.021 177.069 134.943 177.7C134.873 178.319 134.951 178.932 135.177 179.537C135.4 180.125 135.746 180.696 136.216 181.25C136.685 181.804 137.25 182.314 137.91 182.779Z" fill="black"/>
<path d="M164.093 158.589C163.793 158.319 163.444 158.162 163.045 158.118C162.647 158.074 162.132 158.198 161.502 158.489C160.871 158.762 160.072 159.26 159.104 159.983C158.216 160.62 157.331 161.164 156.451 161.615C155.57 162.049 154.715 162.347 153.884 162.51C153.062 162.663 152.269 162.65 151.503 162.468C150.728 162.278 150.007 161.883 149.339 161.281C148.682 160.689 148.189 159.991 147.861 159.187C147.542 158.374 147.4 157.501 147.434 156.568C147.467 155.617 147.707 154.641 148.152 153.64C148.597 152.621 149.26 151.623 150.14 150.646C151.368 149.282 152.641 148.307 153.956 147.723C155.28 147.128 156.56 146.914 157.795 147.08C159.029 147.227 160.13 147.737 161.097 148.608L157.332 152.788C156.926 152.422 156.485 152.182 156.008 152.069C155.531 151.937 155.04 151.967 154.533 152.159C154.026 152.333 153.52 152.701 153.014 153.262C152.596 153.726 152.317 154.202 152.176 154.689C152.026 155.167 152.003 155.62 152.109 156.047C152.213 156.457 152.425 156.805 152.744 157.093C152.986 157.311 153.247 157.459 153.528 157.536C153.808 157.595 154.129 157.578 154.493 157.486C154.857 157.393 155.273 157.224 155.739 156.978C156.205 156.714 156.739 156.354 157.342 155.899C158.594 154.976 159.81 154.24 160.989 153.689C162.158 153.131 163.297 152.877 164.406 152.93C165.506 152.974 166.568 153.458 167.594 154.382C168.29 155.009 168.789 155.739 169.091 156.572C169.393 157.404 169.5 158.307 169.412 159.28C169.315 160.243 169.021 161.241 168.531 162.271C168.04 163.283 167.341 164.292 166.435 165.299C165.119 166.759 163.742 167.762 162.305 168.308C160.876 168.843 159.525 169.011 158.251 168.81C156.977 168.59 155.914 168.097 155.062 167.33L158.631 163.369C159.219 163.863 159.81 164.132 160.402 164.175C161.003 164.208 161.572 164.082 162.111 163.796C162.658 163.5 163.158 163.1 163.611 162.597C164.099 162.055 164.432 161.54 164.609 161.051C164.777 160.554 164.817 160.1 164.731 159.69C164.645 159.261 164.432 158.894 164.093 158.589Z" fill="black"/>
<path d="M168.441 132.836L182.768 148.371L178.619 152.197L164.292 136.662L168.441 132.836ZM160.299 132.852C159.743 132.249 159.495 131.557 159.554 130.776C159.613 129.995 159.997 129.278 160.705 128.625C161.404 127.98 162.145 127.66 162.928 127.664C163.721 127.659 164.395 127.959 164.951 128.562C165.508 129.165 165.751 129.861 165.682 130.651C165.623 131.432 165.244 132.144 164.545 132.789C163.837 133.442 163.091 133.766 162.308 133.762C161.525 133.758 160.856 133.455 160.299 132.852Z" fill="black"/>
<path d="M183.014 134.207L182.767 133.88C181.831 132.645 181.147 131.374 180.714 130.069C180.273 128.753 180.1 127.456 180.193 126.177C180.286 124.898 180.665 123.672 181.329 122.5C181.985 121.317 182.952 120.242 184.228 119.276C185.505 118.309 186.807 117.666 188.134 117.348C189.453 117.019 190.74 116.983 191.997 117.241C193.263 117.49 194.47 118.006 195.617 118.787C196.756 119.558 197.793 120.561 198.728 121.797L198.976 122.124C199.903 123.349 200.587 124.619 201.028 125.935C201.461 127.24 201.63 128.542 201.534 129.839C201.441 131.118 201.062 132.344 200.398 133.516C199.734 134.688 198.763 135.758 197.486 136.724C196.21 137.691 194.912 138.339 193.593 138.667C192.284 138.988 190.997 139.024 189.73 138.775C188.466 138.507 187.264 137.988 186.125 137.217C184.979 136.435 183.941 135.432 183.014 134.207ZM187.251 130.485L187.499 130.812C188.033 131.518 188.595 132.13 189.183 132.648C189.771 133.166 190.377 133.557 191.001 133.82C191.627 134.064 192.261 134.147 192.904 134.069C193.547 133.991 194.19 133.708 194.834 133.22C195.457 132.749 195.893 132.214 196.143 131.617C196.393 131.019 196.48 130.39 196.404 129.729C196.321 129.058 196.109 128.368 195.77 127.662C195.441 126.947 195.01 126.237 194.475 125.531L194.228 125.204C193.709 124.518 193.154 123.926 192.564 123.426C191.975 122.908 191.364 122.521 190.73 122.266C190.099 121.993 189.458 121.89 188.807 121.958C188.156 122.026 187.514 122.3 186.881 122.779C186.248 123.259 185.81 123.803 185.568 124.41C185.336 125.01 185.261 125.655 185.342 126.345C185.426 127.016 185.637 127.706 185.976 128.412C186.308 129.109 186.733 129.8 187.251 130.485Z" fill="black"/>
<path d="M208.674 108.615L216.999 123.001L212.13 125.818L201.546 107.527L206.11 104.886L208.674 108.615ZM210.625 113.624L209.306 114.387C208.524 113.034 207.994 111.716 207.717 110.432C207.434 109.137 207.386 107.923 207.574 106.792C207.755 105.649 208.162 104.624 208.795 103.716C209.433 102.79 210.293 102.014 211.375 101.388C212.232 100.893 213.087 100.563 213.94 100.4C214.793 100.238 215.63 100.28 216.451 100.527C217.282 100.768 218.091 101.256 218.876 101.99C219.673 102.717 220.443 103.723 221.187 105.008L227.936 116.672L223.034 119.509L216.274 107.828C215.805 107.016 215.327 106.45 214.841 106.13C214.354 105.809 213.839 105.686 213.296 105.76C212.756 105.816 212.171 106.027 211.54 106.392C210.887 106.771 210.392 107.23 210.058 107.769C209.734 108.302 209.549 108.891 209.5 109.536C209.457 110.163 209.532 110.826 209.727 111.526C209.921 112.226 210.22 112.925 210.625 113.624Z" fill="black"/>
<path d="M244.941 103.619L241.246 94.9599C240.98 94.3371 240.651 93.8476 240.258 93.4914C239.86 93.1232 239.392 92.9053 238.854 92.8378C238.327 92.7652 237.729 92.872 237.058 93.1581C236.483 93.4035 236.03 93.7173 235.697 94.0998C235.36 94.4703 235.157 94.8897 235.088 95.3581C235.013 95.8144 235.081 96.2881 235.291 96.7792L230.117 98.9869C229.764 98.1606 229.621 97.2944 229.688 96.3883C229.754 95.4823 230.032 94.5919 230.523 93.7173C231.008 92.8307 231.685 92.0111 232.553 91.2585C233.432 90.5007 234.501 89.8536 235.759 89.3169C237.268 88.673 238.716 88.3521 240.105 88.3543C241.493 88.3564 242.737 88.7174 243.837 89.4372C244.949 90.1519 245.827 91.2637 246.471 92.7727L250.02 101.09C250.475 102.156 250.914 103.002 251.337 103.628C251.755 104.243 252.197 104.748 252.663 105.144L252.793 105.449L247.566 107.68C247.089 107.26 246.617 106.683 246.148 105.949C245.685 105.198 245.283 104.421 244.941 103.619ZM242.442 95.8721L243.728 98.7849L240.835 100.019C240.153 100.31 239.593 100.641 239.157 101.012C238.72 101.382 238.401 101.78 238.201 102.205C237.995 102.619 237.893 103.044 237.896 103.482C237.911 103.914 238.013 104.352 238.202 104.795C238.391 105.239 238.664 105.596 239.021 105.869C239.373 106.129 239.784 106.279 240.254 106.319C240.719 106.347 241.209 106.252 241.724 106.032C242.502 105.7 243.112 105.255 243.554 104.699C243.996 104.142 244.276 103.57 244.393 102.982C244.522 102.389 244.506 101.886 244.344 101.474L246.644 103.083C246.662 103.655 246.616 104.277 246.506 104.947C246.407 105.612 246.206 106.285 245.902 106.967C245.594 107.637 245.15 108.272 244.571 108.873C243.987 109.462 243.21 109.963 242.24 110.377C241.006 110.903 239.782 111.136 238.566 111.074C237.358 110.995 236.274 110.644 235.314 110.02C234.361 109.379 233.644 108.496 233.163 107.37C232.729 106.352 232.535 105.366 232.581 104.412C232.627 103.458 232.906 102.553 233.419 101.698C233.938 100.825 234.702 100.01 235.71 99.2546C236.713 98.4868 237.957 97.786 239.442 97.1523L242.442 95.8721Z" fill="black"/>
<path d="M257.597 72.2849L266.707 100.868L261.329 102.582L252.219 73.9991L257.597 72.2849Z" fill="black"/>
<path d="M304.288 85.3086C304.216 84.8058 304.075 84.3656 303.863 83.9879C303.663 83.5955 303.339 83.2601 302.892 82.9817C302.443 82.6904 301.834 82.4284 301.064 82.1957C300.295 81.963 299.31 81.7477 298.112 81.5497C296.777 81.3184 295.499 81.0263 294.279 80.6736C293.071 80.319 291.98 79.8624 291.007 79.3036C290.044 78.7301 289.247 78.0214 288.614 77.1775C287.994 76.3318 287.598 75.303 287.426 74.0912C287.259 72.9181 287.366 71.8179 287.746 70.7907C288.125 69.7506 288.729 68.8231 289.561 68.008C290.39 67.1801 291.41 66.4895 292.62 65.9362C293.843 65.3811 295.215 64.9956 296.737 64.7796C298.812 64.4848 300.676 64.6015 302.33 65.1295C303.983 65.6576 305.327 66.5122 306.363 67.6934C307.412 68.8728 308.055 70.3004 308.293 71.9763L302.53 72.7946C302.413 71.9696 302.137 71.2724 301.701 70.703C301.276 70.1189 300.69 69.6958 299.942 69.4337C299.208 69.1698 298.318 69.1119 297.274 69.2602C296.269 69.403 295.453 69.6767 294.826 70.0813C294.198 70.473 293.753 70.9504 293.491 71.5137C293.227 72.0641 293.14 72.6551 293.23 73.2868C293.298 73.7638 293.475 74.1791 293.762 74.5329C294.062 74.8849 294.474 75.1946 294.999 75.4621C295.523 75.7295 296.155 75.962 296.893 76.1597C297.631 76.3574 298.478 76.533 299.433 76.6866C301.033 76.9329 302.455 77.2637 303.697 77.6791C304.953 78.0926 306.025 78.6045 306.914 79.2147C307.803 79.825 308.512 80.5594 309.042 81.418C309.571 82.2765 309.919 83.2859 310.083 84.4461C310.257 85.6708 310.174 86.8005 309.835 87.8351C309.495 88.8697 308.921 89.7862 308.114 90.5847C307.307 91.3832 306.303 92.0453 305.102 92.5709C303.901 93.0966 302.527 93.4692 300.98 93.6889C299.588 93.8866 298.189 93.9011 296.784 93.7323C295.377 93.5507 294.067 93.1647 292.852 92.5745C291.65 91.9823 290.638 91.1529 289.816 90.086C288.993 89.0191 288.47 87.6928 288.244 86.1072L294.065 85.2807C294.189 86.1573 294.43 86.8793 294.787 87.4468C295.144 88.0142 295.593 88.4501 296.136 88.7544C296.692 89.0569 297.324 89.2434 298.031 89.314C298.751 89.3827 299.523 89.3585 300.348 89.2413C301.354 89.0985 302.159 88.8396 302.763 88.4644C303.38 88.0874 303.808 87.6256 304.046 87.0789C304.297 86.5304 304.377 85.9403 304.288 85.3086Z" fill="#FF0000"/>
<path d="M329.33 69.9621L329.461 73.9443L317.163 74.351L317.032 70.3688L329.33 69.9621ZM319.905 65.0561L325.526 64.8702L326.187 84.8397C326.207 85.4514 326.301 85.9173 326.468 86.2375C326.648 86.5572 326.902 86.7768 327.232 86.8962C327.561 87.0025 327.973 87.0475 328.468 87.0312C328.819 87.0196 329.131 86.9962 329.403 86.9612C329.688 86.9126 329.928 86.8656 330.122 86.8201L330.278 90.9579C329.802 91.1299 329.285 91.2708 328.729 91.3804C328.172 91.49 327.555 91.556 326.879 91.5784C325.642 91.6193 324.556 91.4533 323.618 91.0804C322.694 90.6941 321.969 90.0536 321.444 89.159C320.92 88.2644 320.633 87.0753 320.584 85.5918L319.905 65.0561Z" fill="#FF0000"/>
<path d="M349.977 87.0872L350.619 77.6951C350.666 77.0196 350.595 76.434 350.407 75.9382C350.22 75.4295 349.902 75.0227 349.453 74.7179C349.017 74.414 348.435 74.2372 347.707 74.1874C347.084 74.1447 346.537 74.2182 346.067 74.408C345.599 74.5847 345.227 74.866 344.953 75.2518C344.679 75.6246 344.524 76.0773 344.488 76.6099L338.876 76.2259C338.937 75.3296 339.203 74.4929 339.674 73.7159C340.145 72.939 340.797 72.2723 341.632 71.716C342.467 71.1467 343.442 70.724 344.557 70.4479C345.685 70.1728 346.931 70.0818 348.295 70.1752C349.932 70.2872 351.368 70.6595 352.604 71.2923C353.84 71.925 354.784 72.8118 355.437 73.9528C356.103 75.0947 356.379 76.484 356.267 78.1208L355.65 87.1427C355.571 88.2988 355.578 89.252 355.67 90.0023C355.763 90.7395 355.927 91.3902 356.163 91.9545L356.14 92.2858L350.47 91.8977C350.236 91.3075 350.077 90.5788 349.993 89.7116C349.922 88.8324 349.917 87.9576 349.977 87.0872ZM351.27 79.0513L351.092 82.2302L347.955 82.0155C347.214 81.9648 346.566 82.0053 346.008 82.1368C345.451 82.2683 344.987 82.478 344.615 82.7658C344.243 83.0405 343.96 83.3735 343.763 83.7647C343.58 84.1567 343.472 84.593 343.439 85.0737C343.406 85.5543 343.486 85.9971 343.681 86.4019C343.876 86.7937 344.173 87.1143 344.574 87.3636C344.975 87.5999 345.456 87.7371 346.014 87.7753C346.858 87.8331 347.604 87.7145 348.251 87.4194C348.897 87.1243 349.406 86.7415 349.778 86.271C350.162 85.8014 350.376 85.3461 350.42 84.9054L351.738 87.3839C351.493 87.9023 351.17 88.4349 350.767 88.9816C350.377 89.5291 349.892 90.0376 349.312 90.5069C348.732 90.9632 348.048 91.3275 347.26 91.5998C346.472 91.8591 345.552 91.9528 344.5 91.8808C343.162 91.7892 341.965 91.4398 340.911 90.8325C339.87 90.2131 339.064 89.4075 338.492 88.4156C337.934 87.4117 337.697 86.2991 337.781 85.078C337.856 83.9738 338.131 83.0073 338.605 82.1784C339.08 81.3494 339.74 80.6703 340.585 80.1408C341.444 79.5992 342.495 79.2209 343.736 79.0056C344.979 78.7774 346.405 78.7184 348.016 78.8287L351.27 79.0513Z" fill="#FF0000"/>
<path d="M378.507 74.4514L377.834 78.3785L365.706 76.3003L366.379 72.3732L378.507 74.4514ZM370.263 67.7478L375.807 68.6979L372.433 88.3913C372.329 88.9945 372.327 89.4697 372.426 89.8169C372.538 90.1664 372.743 90.4327 373.042 90.6161C373.343 90.7865 373.738 90.9136 374.225 90.9971C374.572 91.0565 374.882 91.0965 375.156 91.117C375.445 91.1269 375.689 91.129 375.888 91.1235L375.208 95.208C374.707 95.2806 374.172 95.3146 373.605 95.3098C373.038 95.3051 372.421 95.2456 371.753 95.1312C370.534 94.9223 369.503 94.5408 368.66 93.9868C367.832 93.4222 367.251 92.6489 366.917 91.667C366.584 90.6851 366.542 89.4626 366.793 87.9995L370.263 67.7478Z" fill="#FF0000"/>
<path d="M393.996 78.0464L388.832 98.5386L383.358 97.1593L388.522 76.6671L393.996 78.0464ZM389.527 71.2404C389.728 70.4449 390.171 69.8583 390.857 69.4807C391.543 69.103 392.353 69.0319 393.287 69.2673C394.209 69.4996 394.882 69.9445 395.308 70.6022C395.745 71.2631 395.864 71.9912 395.663 72.7866C395.463 73.5821 395.013 74.1671 394.315 74.5416C393.629 74.9192 392.825 74.9919 391.903 74.7597C390.969 74.5242 390.289 74.0777 389.864 73.42C389.439 72.7624 389.327 72.0358 389.527 71.2404Z" fill="#FF0000"/>
<path d="M410.901 99.3836C411.035 99.0029 411.046 98.6202 410.933 98.2352C410.821 97.8502 410.509 97.4226 409.998 96.9523C409.504 96.4741 408.738 95.9272 407.699 95.3117C406.77 94.7353 405.928 94.1274 405.173 93.4881C404.435 92.8408 403.832 92.1651 403.362 91.4608C402.905 90.7609 402.613 90.0227 402.487 89.2462C402.365 88.4575 402.454 87.6395 402.753 86.7923C403.048 85.9574 403.503 85.2345 404.119 84.6236C404.748 84.0169 405.499 83.5504 406.374 83.2241C407.265 82.8898 408.259 82.7364 409.353 82.764C410.465 82.7837 411.641 83.0124 412.881 83.4503C414.612 84.0615 416 84.8623 417.045 85.8527C418.102 86.8474 418.791 87.9468 419.112 89.1508C419.449 90.3469 419.401 91.5589 418.967 92.7867L413.663 90.9139C413.845 90.3982 413.897 89.8988 413.819 89.4156C413.758 88.9244 413.542 88.482 413.17 88.0883C412.814 87.6867 412.281 87.3602 411.568 87.1087C410.979 86.9007 410.433 86.8251 409.929 86.8821C409.43 86.9268 409.003 87.0799 408.649 87.3413C408.311 87.5948 408.07 87.9241 407.927 88.3293C407.819 88.6362 407.782 88.9341 407.819 89.2231C407.871 89.504 408.01 89.7948 408.236 90.0952C408.461 90.3957 408.776 90.7143 409.182 91.0509C409.605 91.3796 410.142 91.735 410.794 92.1172C412.127 92.9191 413.273 93.7589 414.234 94.6365C415.199 95.5019 415.869 96.4569 416.246 97.5013C416.628 98.5335 416.588 99.7003 416.129 101.002C415.817 101.886 415.334 102.627 414.681 103.225C414.028 103.823 413.236 104.268 412.304 104.56C411.377 104.84 410.343 104.952 409.203 104.895C408.08 104.829 406.88 104.571 405.603 104.121C403.749 103.466 402.295 102.58 401.24 101.461C400.197 100.348 399.524 99.164 399.221 97.9108C398.934 96.6497 398.982 95.4789 399.363 94.3985L404.391 96.1737C404.16 96.9068 404.138 97.555 404.326 98.1184C404.526 98.6861 404.861 99.1636 405.332 99.5508C405.815 99.9423 406.376 100.251 407.014 100.476C407.702 100.719 408.305 100.828 408.825 100.805C409.348 100.769 409.783 100.632 410.129 100.395C410.492 100.151 410.749 99.8133 410.901 99.3836Z" fill="#FF0000"/>
<path d="M440.444 95.4491L438.752 99.0563L427.612 93.8309L429.304 90.2236L440.444 95.4491ZM434.277 86.7963L439.37 89.1851L430.884 107.274C430.624 107.828 430.496 108.286 430.499 108.647C430.514 109.014 430.642 109.325 430.881 109.581C431.126 109.825 431.472 110.053 431.92 110.263C432.239 110.412 432.527 110.533 432.786 110.626C433.062 110.712 433.296 110.779 433.49 110.826L431.749 114.583C431.246 114.52 430.722 114.411 430.177 114.256C429.631 114.101 429.052 113.879 428.439 113.592C427.319 113.066 426.426 112.425 425.761 111.667C425.112 110.902 424.758 110.002 424.697 108.967C424.636 107.932 424.921 106.742 425.551 105.398L434.277 86.7963Z" fill="#FF0000"/>
<path d="M454.421 103.03L443.999 121.414L439.088 118.63L449.511 100.246L454.421 103.03ZM451.921 95.2816C452.326 94.5679 452.909 94.1202 453.671 93.9383C454.432 93.7565 455.232 93.9032 456.07 94.3784C456.897 94.8471 457.428 95.455 457.663 96.202C457.91 96.9554 457.831 97.6889 457.426 98.4025C457.022 99.1161 456.433 99.5606 455.66 99.7361C454.898 99.9179 454.104 99.7745 453.277 99.3057C452.439 98.8305 451.902 98.2194 451.667 97.4724C451.432 96.7255 451.517 95.9952 451.921 95.2816Z" fill="#FF0000"/>
<path d="M461.789 128.058C462.355 128.452 462.932 128.695 463.519 128.786C464.113 128.867 464.671 128.795 465.192 128.571C465.731 128.344 466.196 127.961 466.586 127.424L470.929 130.449C470.07 131.659 468.989 132.517 467.686 133.021C466.39 133.515 465.013 133.659 463.554 133.452C462.103 133.235 460.709 132.661 459.374 131.731C458.027 130.793 457.008 129.75 456.316 128.602C455.635 127.461 455.239 126.265 455.127 125.013C455.022 123.75 455.173 122.474 455.578 121.186C455.991 119.887 456.622 118.628 457.47 117.41L457.794 116.945C458.649 115.716 459.611 114.689 460.679 113.861C461.755 113.024 462.899 112.44 464.112 112.111C465.333 111.771 466.596 111.722 467.902 111.965C469.208 112.209 470.529 112.795 471.865 113.726C473.286 114.715 474.341 115.855 475.03 117.144C475.73 118.44 476.031 119.808 475.933 121.247C475.853 122.683 475.339 124.094 474.389 125.48L470.046 122.455C470.437 121.871 470.679 121.262 470.771 120.628C470.874 120.001 470.803 119.397 470.559 118.814C470.332 118.228 469.904 117.715 469.273 117.276C468.6 116.807 467.95 116.568 467.321 116.559C466.7 116.539 466.101 116.693 465.524 117.021C464.954 117.338 464.405 117.773 463.877 118.326C463.368 118.875 462.879 119.487 462.41 120.16L462.086 120.625C461.617 121.298 461.21 121.974 460.864 122.653C460.518 123.333 460.295 123.994 460.195 124.639C460.106 125.291 460.178 125.905 460.412 126.48C460.646 127.056 461.105 127.581 461.789 128.058Z" fill="#FF0000"/>
<path d="M485.425 144.542C485.692 144.239 485.845 143.888 485.885 143.489C485.925 143.09 485.796 142.577 485.498 141.95C485.219 141.321 484.713 140.527 483.979 139.568C483.333 138.686 482.78 137.807 482.32 136.932C481.877 136.055 481.57 135.203 481.399 134.374C481.237 133.554 481.242 132.76 481.416 131.993C481.598 131.216 481.986 130.49 482.58 129.817C483.166 129.153 483.859 128.653 484.659 128.317C485.469 127.989 486.34 127.838 487.274 127.863C488.225 127.886 489.204 128.115 490.209 128.551C491.232 128.985 492.237 129.637 493.223 130.507C494.6 131.722 495.588 132.984 496.186 134.293C496.794 135.611 497.022 136.888 496.869 138.125C496.734 139.36 496.235 140.466 495.374 141.443L491.156 137.721C491.518 137.311 491.753 136.867 491.861 136.39C491.988 135.912 491.953 135.42 491.755 134.916C491.576 134.411 491.203 133.908 490.637 133.409C490.168 132.995 489.69 132.721 489.202 132.585C488.722 132.44 488.269 132.422 487.842 132.532C487.434 132.64 487.088 132.856 486.804 133.178C486.588 133.422 486.443 133.685 486.369 133.966C486.312 134.247 486.332 134.568 486.429 134.931C486.525 135.294 486.699 135.708 486.949 136.172C487.218 136.635 487.583 137.165 488.045 137.764C488.981 139.006 489.73 140.214 490.292 141.387C490.863 142.55 491.128 143.687 491.087 144.797C491.054 145.896 490.581 146.964 489.668 147.999C489.048 148.702 488.323 149.208 487.494 149.519C486.664 149.829 485.763 149.945 484.789 149.868C483.825 149.78 482.824 149.497 481.789 149.018C480.772 148.537 479.755 147.849 478.74 146.953C477.266 145.652 476.248 144.286 475.688 142.854C475.138 141.431 474.957 140.081 475.144 138.806C475.351 137.529 475.833 136.461 476.591 135.602L480.589 139.129C480.1 139.723 479.838 140.316 479.801 140.909C479.774 141.51 479.906 142.078 480.198 142.613C480.5 143.157 480.904 143.653 481.412 144.101C481.959 144.583 482.478 144.911 482.968 145.083C483.467 145.246 483.921 145.282 484.331 145.192C484.759 145.1 485.123 144.884 485.425 144.542Z" fill="#FF0000"/>
<path d="M509.827 170.866L524.972 164.925L527.128 167.777L521.525 170.567L506.925 176.096L505.123 173.712L509.827 170.866ZM520.979 159.644L510.396 171.586L506.195 175.13L504.074 172.325L517.705 155.312L520.979 159.644ZM517.277 180.267L531.403 173.432L534.689 177.779L514.604 186.254L512.496 183.465L517.277 180.267ZM527.422 168.166L517.659 181.031L513.568 184.883L511.754 182.484L521.038 169.956L525.29 165.346L527.422 168.166Z" fill="black"/>
<path d="M543.017 191.836L524.836 202.608L521.959 197.752L540.139 186.98L543.017 191.836ZM544.699 183.87C545.404 183.451 546.133 183.353 546.884 183.574C547.636 183.794 548.257 184.319 548.748 185.148C549.233 185.966 549.391 186.757 549.224 187.522C549.063 188.298 548.63 188.896 547.925 189.314C547.219 189.732 546.487 189.825 545.729 189.593C544.978 189.372 544.36 188.853 543.875 188.035C543.384 187.206 543.222 186.409 543.389 185.644C543.557 184.879 543.993 184.288 544.699 183.87Z" fill="black"/>
<path d="M553.083 211.086L549.509 212.847L544.071 201.809L547.645 200.048L553.083 211.086ZM553.67 200.476L556.156 205.522L538.232 214.352C537.683 214.623 537.298 214.9 537.075 215.184C536.857 215.48 536.762 215.802 536.789 216.152C536.828 216.496 536.957 216.89 537.175 217.333C537.331 217.649 537.481 217.923 537.625 218.157C537.786 218.397 537.928 218.596 538.049 218.754L534.344 220.601C533.991 220.238 533.649 219.825 533.32 219.363C532.991 218.901 532.677 218.367 532.378 217.759C531.831 216.65 531.534 215.591 531.488 214.583C531.459 213.582 531.744 212.657 532.343 211.811C532.942 210.964 533.907 210.213 535.238 209.557L553.67 200.476Z" fill="black"/>
<path d="M567.598 222.655L539.46 233.06L537.51 227.784L565.648 217.38L567.598 222.655ZM549.789 228.387L549.254 226.94C550.639 226.441 551.977 226.155 553.268 226.08C554.571 226.001 555.772 226.133 556.871 226.476C557.982 226.815 558.945 227.354 559.76 228.094C560.579 228.846 561.197 229.784 561.612 230.908C561.974 231.885 562.161 232.822 562.173 233.72C562.203 234.625 562.018 235.478 561.62 236.278C561.238 237.085 560.617 237.828 559.758 238.507C558.898 239.186 557.772 239.783 556.38 240.297L543.85 244.931L541.885 239.618L554.452 234.971C555.332 234.646 555.974 234.263 556.38 233.821C556.803 233.387 557.03 232.894 557.061 232.341C557.109 231.795 557.007 231.181 556.754 230.497C556.474 229.74 556.095 229.144 555.615 228.711C555.14 228.289 554.593 228.013 553.975 227.88C553.369 227.743 552.709 227.724 551.996 227.821C551.282 227.918 550.547 228.107 549.789 228.387Z" fill="black"/>
<path d="M556.769 283.115L551.924 291.652L548.194 288.495L553.057 280.073L556.769 283.115ZM568.515 289.281L567.183 289.488C565.047 289.818 563.085 289.826 561.297 289.51C559.511 289.206 557.937 288.613 556.574 287.731C555.225 286.846 554.123 285.725 553.267 284.369C552.412 283.013 551.846 281.446 551.571 279.671C551.299 277.908 551.364 276.244 551.767 274.68C552.171 273.115 552.881 271.707 553.9 270.456C554.931 269.203 556.25 268.149 557.857 267.294C559.466 266.452 561.339 265.865 563.475 265.535L564.806 265.329C566.955 264.996 568.917 264.988 570.693 265.307C572.483 265.635 574.058 266.235 575.418 267.105C576.778 267.975 577.887 269.094 578.744 270.463C579.602 271.833 580.167 273.399 580.44 275.162C580.715 276.937 580.65 278.601 580.245 280.153C579.841 281.717 579.124 283.126 578.092 284.379C577.061 285.633 575.741 286.68 574.132 287.522C572.536 288.362 570.664 288.949 568.515 289.281ZM566.278 283.639L567.648 283.427C569.141 283.196 570.431 282.851 571.52 282.393C572.61 281.947 573.501 281.401 574.191 280.754C574.883 280.12 575.364 279.393 575.632 278.574C575.914 277.753 575.979 276.854 575.827 275.876C575.676 274.898 575.342 274.06 574.825 273.363C574.322 272.663 573.644 272.116 572.792 271.721C571.941 271.326 570.928 271.081 569.754 270.986C568.579 270.891 567.246 270.959 565.753 271.19L564.383 271.402C562.903 271.631 561.612 271.97 560.508 272.417C559.418 272.863 558.52 273.404 557.815 274.04C557.124 274.687 556.638 275.421 556.357 276.242C556.078 277.076 556.014 277.982 556.165 278.96C556.317 279.937 556.65 280.769 557.164 281.453C557.68 282.151 558.364 282.697 559.216 283.092C560.083 283.498 561.103 283.749 562.277 283.844C563.464 283.937 564.798 283.868 566.278 283.639Z" fill="black"/>
<path d="M582.933 305.77L554.523 307.003L554.269 301.169L582.68 299.935L582.933 305.77Z" fill="black"/>
<path d="M582.838 324.59L554.415 323.693L554.599 317.856L583.022 318.753L582.838 324.59Z" fill="black"/>
<path d="M581.896 341.142L581.108 346.04L559.335 349.938L578.79 360.464L578.003 365.362L551.556 350.706L552.188 346.772L581.896 341.142ZM582.32 338.5L581.536 343.378L561.3 341.036L553.316 339.753L554.243 333.987L582.32 338.5ZM578.362 363.125L577.575 368.023L549.498 363.51L550.428 357.725L558.411 359.008L578.362 363.125Z" fill="black"/>
<path d="M545.145 393.197L540.795 391.797L545.433 377.388L549.784 378.789L545.145 393.197ZM571.916 387.924L544.847 379.21L546.642 373.633L573.712 382.347L571.916 387.924ZM557.444 395.084L553.205 393.719L557.239 381.189L561.478 382.553L557.444 395.084ZM567.87 400.492L563.501 399.086L568.133 384.696L572.503 386.102L567.87 400.492Z" fill="black"/>
<path d="M533.691 418.584L529.706 416.732L537.901 399.09L541.302 400.67L546.372 413.168C546.915 414.44 547.429 415.482 547.912 416.296C548.408 417.114 548.89 417.762 549.358 418.238C549.832 418.731 550.329 419.098 550.849 419.339C551.628 419.701 552.356 419.881 553.031 419.879C553.719 419.883 554.334 419.702 554.877 419.337C555.414 418.984 555.853 418.441 556.193 417.709C556.555 416.929 556.679 416.168 556.565 415.426C556.444 414.696 556.116 414.026 555.58 413.418C555.039 412.822 554.343 412.327 553.493 411.932L555.871 406.813C557.406 407.526 558.641 408.545 559.577 409.869C560.524 411.199 561.065 412.707 561.201 414.393C561.349 416.084 560.997 417.844 560.147 419.675C559.308 421.481 558.305 422.868 557.139 423.833C555.978 424.816 554.701 425.371 553.307 425.499C551.919 425.644 550.469 425.365 548.957 424.663C548.107 424.268 547.338 423.745 546.649 423.095C545.972 422.451 545.35 421.688 544.783 420.807C544.222 419.944 543.699 418.968 543.213 417.881C542.728 416.794 542.248 415.617 541.775 414.349L538.826 407.53L533.691 418.584Z" fill="black"/>
<path d="M144.668 522.125V497.184L145.391 492.867H150.332V522.125H144.668ZM131.309 503.648V503.238C131.309 501.624 131.484 500.159 131.836 498.844C132.201 497.516 132.734 496.383 133.438 495.445C134.141 494.495 135 493.766 136.016 493.258C137.044 492.737 138.229 492.477 139.57 492.477C140.859 492.477 141.973 492.737 142.91 493.258C143.848 493.779 144.635 494.514 145.273 495.465C145.924 496.415 146.445 497.535 146.836 498.824C147.227 500.113 147.526 501.526 147.734 503.062V503.961C147.539 505.432 147.24 506.799 146.836 508.062C146.445 509.326 145.924 510.432 145.273 511.383C144.635 512.333 143.841 513.076 142.891 513.609C141.953 514.13 140.833 514.391 139.531 514.391C138.216 514.391 137.044 514.124 136.016 513.59C135 513.043 134.141 512.288 133.438 511.324C132.734 510.361 132.201 509.228 131.836 507.926C131.484 506.611 131.309 505.185 131.309 503.648ZM136.934 503.238V503.648C136.934 504.521 137.005 505.341 137.148 506.109C137.292 506.865 137.52 507.535 137.832 508.121C138.158 508.707 138.574 509.169 139.082 509.508C139.59 509.833 140.215 509.996 140.957 509.996C141.986 509.996 142.812 509.775 143.438 509.332C144.076 508.876 144.544 508.258 144.844 507.477C145.156 506.695 145.339 505.803 145.391 504.801V502.242C145.352 501.422 145.241 500.686 145.059 500.035C144.889 499.371 144.629 498.805 144.277 498.336C143.939 497.867 143.496 497.509 142.949 497.262C142.415 497.001 141.764 496.871 140.996 496.871C140.267 496.871 139.642 497.034 139.121 497.359C138.6 497.685 138.177 498.141 137.852 498.727C137.539 499.299 137.305 499.97 137.148 500.738C137.005 501.507 136.934 502.34 136.934 503.238ZM173.984 509.605V514H154.531V510.25L163.73 500.387C164.655 499.358 165.384 498.453 165.918 497.672C166.452 496.878 166.836 496.168 167.07 495.543C167.318 494.905 167.441 494.299 167.441 493.727C167.441 492.867 167.298 492.132 167.012 491.52C166.725 490.895 166.302 490.413 165.742 490.074C165.195 489.736 164.518 489.566 163.711 489.566C162.852 489.566 162.109 489.775 161.484 490.191C160.872 490.608 160.404 491.188 160.078 491.93C159.766 492.672 159.609 493.512 159.609 494.449H153.965C153.965 492.757 154.368 491.207 155.176 489.801C155.983 488.382 157.122 487.255 158.594 486.422C160.065 485.576 161.81 485.152 163.828 485.152C165.82 485.152 167.5 485.478 168.867 486.129C170.247 486.767 171.289 487.691 171.992 488.902C172.708 490.1 173.066 491.533 173.066 493.199C173.066 494.137 172.917 495.055 172.617 495.953C172.318 496.839 171.888 497.724 171.328 498.609C170.781 499.482 170.117 500.367 169.336 501.266C168.555 502.164 167.689 503.095 166.738 504.059L161.797 509.605H173.984ZM188.828 499.586V504H177.793V499.586H188.828ZM206.895 492.867H211.992V513.297C211.992 515.224 211.562 516.858 210.703 518.199C209.857 519.553 208.672 520.576 207.148 521.266C205.625 521.969 203.854 522.32 201.836 522.32C200.951 522.32 200.013 522.203 199.023 521.969C198.047 521.734 197.109 521.37 196.211 520.875C195.326 520.38 194.583 519.755 193.984 519L196.465 515.68C197.116 516.435 197.871 517.021 198.73 517.438C199.59 517.867 200.54 518.082 201.582 518.082C202.598 518.082 203.457 517.893 204.16 517.516C204.863 517.151 205.404 516.611 205.781 515.895C206.159 515.191 206.348 514.339 206.348 513.336V497.75L206.895 492.867ZM192.676 503.688V503.277C192.676 501.663 192.871 500.198 193.262 498.883C193.665 497.555 194.232 496.415 194.961 495.465C195.703 494.514 196.602 493.779 197.656 493.258C198.711 492.737 199.902 492.477 201.23 492.477C202.637 492.477 203.815 492.737 204.766 493.258C205.716 493.779 206.497 494.521 207.109 495.484C207.721 496.435 208.197 497.561 208.535 498.863C208.887 500.152 209.16 501.565 209.355 503.102V504C209.16 505.471 208.867 506.839 208.477 508.102C208.086 509.365 207.572 510.471 206.934 511.422C206.296 512.359 205.501 513.089 204.551 513.609C203.613 514.13 202.493 514.391 201.191 514.391C199.889 514.391 198.711 514.124 197.656 513.59C196.615 513.056 195.723 512.307 194.98 511.344C194.238 510.38 193.665 509.247 193.262 507.945C192.871 506.643 192.676 505.224 192.676 503.688ZM198.301 503.277V503.688C198.301 504.56 198.385 505.374 198.555 506.129C198.724 506.884 198.984 507.555 199.336 508.141C199.701 508.714 200.15 509.163 200.684 509.488C201.23 509.801 201.875 509.957 202.617 509.957C203.646 509.957 204.486 509.742 205.137 509.312C205.788 508.87 206.276 508.264 206.602 507.496C206.927 506.728 207.116 505.842 207.168 504.84V502.281C207.142 501.461 207.031 500.725 206.836 500.074C206.641 499.41 206.367 498.844 206.016 498.375C205.664 497.906 205.208 497.542 204.648 497.281C204.089 497.021 203.424 496.891 202.656 496.891C201.914 496.891 201.27 497.06 200.723 497.398C200.189 497.724 199.74 498.173 199.375 498.746C199.023 499.319 198.757 499.996 198.574 500.777C198.392 501.546 198.301 502.379 198.301 503.277ZM229.746 492.867H234.844V513.297C234.844 515.224 234.414 516.858 233.555 518.199C232.708 519.553 231.523 520.576 230 521.266C228.477 521.969 226.706 522.32 224.688 522.32C223.802 522.32 222.865 522.203 221.875 521.969C220.898 521.734 219.961 521.37 219.062 520.875C218.177 520.38 217.435 519.755 216.836 519L219.316 515.68C219.967 516.435 220.723 517.021 221.582 517.438C222.441 517.867 223.392 518.082 224.434 518.082C225.449 518.082 226.309 517.893 227.012 517.516C227.715 517.151 228.255 516.611 228.633 515.895C229.01 515.191 229.199 514.339 229.199 513.336V497.75L229.746 492.867ZM215.527 503.688V503.277C215.527 501.663 215.723 500.198 216.113 498.883C216.517 497.555 217.083 496.415 217.812 495.465C218.555 494.514 219.453 493.779 220.508 493.258C221.562 492.737 222.754 492.477 224.082 492.477C225.488 492.477 226.667 492.737 227.617 493.258C228.568 493.779 229.349 494.521 229.961 495.484C230.573 496.435 231.048 497.561 231.387 498.863C231.738 500.152 232.012 501.565 232.207 503.102V504C232.012 505.471 231.719 506.839 231.328 508.102C230.938 509.365 230.423 510.471 229.785 511.422C229.147 512.359 228.353 513.089 227.402 513.609C226.465 514.13 225.345 514.391 224.043 514.391C222.741 514.391 221.562 514.124 220.508 513.59C219.466 513.056 218.574 512.307 217.832 511.344C217.09 510.38 216.517 509.247 216.113 507.945C215.723 506.643 215.527 505.224 215.527 503.688ZM221.152 503.277V503.688C221.152 504.56 221.237 505.374 221.406 506.129C221.576 506.884 221.836 507.555 222.188 508.141C222.552 508.714 223.001 509.163 223.535 509.488C224.082 509.801 224.727 509.957 225.469 509.957C226.497 509.957 227.337 509.742 227.988 509.312C228.639 508.87 229.128 508.264 229.453 507.496C229.779 506.728 229.967 505.842 230.02 504.84V502.281C229.993 501.461 229.883 500.725 229.688 500.074C229.492 499.41 229.219 498.844 228.867 498.375C228.516 497.906 228.06 497.542 227.5 497.281C226.94 497.021 226.276 496.891 225.508 496.891C224.766 496.891 224.121 497.06 223.574 497.398C223.04 497.724 222.591 498.173 222.227 498.746C221.875 499.319 221.608 499.996 221.426 500.777C221.243 501.546 221.152 502.379 221.152 503.277ZM245.156 484V514H239.512V484H245.156ZM261.211 509.234V499.82C261.211 499.143 261.1 498.564 260.879 498.082C260.658 497.587 260.312 497.203 259.844 496.93C259.388 496.656 258.796 496.52 258.066 496.52C257.441 496.52 256.901 496.63 256.445 496.852C255.99 497.06 255.638 497.366 255.391 497.77C255.143 498.16 255.02 498.622 255.02 499.156H249.395C249.395 498.258 249.603 497.405 250.02 496.598C250.436 495.79 251.042 495.081 251.836 494.469C252.63 493.844 253.574 493.355 254.668 493.004C255.775 492.652 257.012 492.477 258.379 492.477C260.02 492.477 261.478 492.75 262.754 493.297C264.03 493.844 265.033 494.664 265.762 495.758C266.504 496.852 266.875 498.219 266.875 499.859V508.902C266.875 510.061 266.947 511.012 267.09 511.754C267.233 512.483 267.441 513.121 267.715 513.668V514H262.031C261.758 513.427 261.549 512.711 261.406 511.852C261.276 510.979 261.211 510.107 261.211 509.234ZM261.953 501.129L261.992 504.312H258.848C258.105 504.312 257.461 504.397 256.914 504.566C256.367 504.736 255.918 504.977 255.566 505.289C255.215 505.589 254.954 505.94 254.785 506.344C254.629 506.747 254.551 507.19 254.551 507.672C254.551 508.154 254.661 508.59 254.883 508.98C255.104 509.358 255.423 509.658 255.84 509.879C256.257 510.087 256.745 510.191 257.305 510.191C258.151 510.191 258.887 510.022 259.512 509.684C260.137 509.345 260.618 508.928 260.957 508.434C261.309 507.939 261.491 507.47 261.504 507.027L262.988 509.41C262.78 509.944 262.493 510.497 262.129 511.07C261.777 511.643 261.328 512.184 260.781 512.691C260.234 513.186 259.577 513.596 258.809 513.922C258.04 514.234 257.129 514.391 256.074 514.391C254.733 514.391 253.516 514.124 252.422 513.59C251.341 513.043 250.482 512.294 249.844 511.344C249.219 510.38 248.906 509.286 248.906 508.062C248.906 506.956 249.115 505.973 249.531 505.113C249.948 504.254 250.56 503.531 251.367 502.945C252.188 502.346 253.21 501.897 254.434 501.598C255.658 501.285 257.077 501.129 258.691 501.129H261.953ZM282.637 508.16C282.637 507.757 282.52 507.392 282.285 507.066C282.051 506.741 281.615 506.441 280.977 506.168C280.352 505.882 279.447 505.621 278.262 505.387C277.194 505.152 276.198 504.859 275.273 504.508C274.362 504.143 273.568 503.707 272.891 503.199C272.227 502.691 271.706 502.092 271.328 501.402C270.951 500.699 270.762 499.898 270.762 499C270.762 498.115 270.951 497.281 271.328 496.5C271.719 495.719 272.272 495.029 272.988 494.43C273.717 493.818 274.603 493.342 275.645 493.004C276.699 492.652 277.884 492.477 279.199 492.477C281.035 492.477 282.611 492.77 283.926 493.355C285.254 493.941 286.27 494.749 286.973 495.777C287.689 496.793 288.047 497.952 288.047 499.254H282.422C282.422 498.707 282.305 498.219 282.07 497.789C281.849 497.346 281.497 497.001 281.016 496.754C280.547 496.493 279.935 496.363 279.18 496.363C278.555 496.363 278.014 496.474 277.559 496.695C277.103 496.904 276.751 497.19 276.504 497.555C276.27 497.906 276.152 498.297 276.152 498.727C276.152 499.052 276.217 499.345 276.348 499.605C276.491 499.853 276.719 500.081 277.031 500.289C277.344 500.497 277.747 500.693 278.242 500.875C278.75 501.044 279.375 501.201 280.117 501.344C281.641 501.656 283.001 502.066 284.199 502.574C285.397 503.069 286.348 503.746 287.051 504.605C287.754 505.452 288.105 506.565 288.105 507.945C288.105 508.883 287.897 509.742 287.48 510.523C287.064 511.305 286.465 511.988 285.684 512.574C284.902 513.147 283.965 513.596 282.871 513.922C281.79 514.234 280.573 514.391 279.219 514.391C277.253 514.391 275.586 514.039 274.219 513.336C272.865 512.633 271.836 511.741 271.133 510.66C270.443 509.566 270.098 508.447 270.098 507.301H275.43C275.456 508.069 275.651 508.688 276.016 509.156C276.393 509.625 276.868 509.964 277.441 510.172C278.027 510.38 278.659 510.484 279.336 510.484C280.065 510.484 280.671 510.387 281.152 510.191C281.634 509.983 281.999 509.71 282.246 509.371C282.507 509.02 282.637 508.616 282.637 508.16ZM303.184 508.16C303.184 507.757 303.066 507.392 302.832 507.066C302.598 506.741 302.161 506.441 301.523 506.168C300.898 505.882 299.993 505.621 298.809 505.387C297.741 505.152 296.745 504.859 295.82 504.508C294.909 504.143 294.115 503.707 293.438 503.199C292.773 502.691 292.253 502.092 291.875 501.402C291.497 500.699 291.309 499.898 291.309 499C291.309 498.115 291.497 497.281 291.875 496.5C292.266 495.719 292.819 495.029 293.535 494.43C294.264 493.818 295.15 493.342 296.191 493.004C297.246 492.652 298.431 492.477 299.746 492.477C301.582 492.477 303.158 492.77 304.473 493.355C305.801 493.941 306.816 494.749 307.52 495.777C308.236 496.793 308.594 497.952 308.594 499.254H302.969C302.969 498.707 302.852 498.219 302.617 497.789C302.396 497.346 302.044 497.001 301.562 496.754C301.094 496.493 300.482 496.363 299.727 496.363C299.102 496.363 298.561 496.474 298.105 496.695C297.65 496.904 297.298 497.19 297.051 497.555C296.816 497.906 296.699 498.297 296.699 498.727C296.699 499.052 296.764 499.345 296.895 499.605C297.038 499.853 297.266 500.081 297.578 500.289C297.891 500.497 298.294 500.693 298.789 500.875C299.297 501.044 299.922 501.201 300.664 501.344C302.188 501.656 303.548 502.066 304.746 502.574C305.944 503.069 306.895 503.746 307.598 504.605C308.301 505.452 308.652 506.565 308.652 507.945C308.652 508.883 308.444 509.742 308.027 510.523C307.611 511.305 307.012 511.988 306.23 512.574C305.449 513.147 304.512 513.596 303.418 513.922C302.337 514.234 301.12 514.391 299.766 514.391C297.799 514.391 296.133 514.039 294.766 513.336C293.411 512.633 292.383 511.741 291.68 510.66C290.99 509.566 290.645 508.447 290.645 507.301H295.977C296.003 508.069 296.198 508.688 296.562 509.156C296.94 509.625 297.415 509.964 297.988 510.172C298.574 510.38 299.206 510.484 299.883 510.484C300.612 510.484 301.217 510.387 301.699 510.191C302.181 509.983 302.546 509.71 302.793 509.371C303.053 509.02 303.184 508.616 303.184 508.16ZM311.406 503.648V503.238C311.406 501.689 311.628 500.263 312.07 498.961C312.513 497.646 313.158 496.507 314.004 495.543C314.85 494.579 315.892 493.831 317.129 493.297C318.366 492.75 319.785 492.477 321.387 492.477C322.988 492.477 324.414 492.75 325.664 493.297C326.914 493.831 327.962 494.579 328.809 495.543C329.668 496.507 330.319 497.646 330.762 498.961C331.204 500.263 331.426 501.689 331.426 503.238V503.648C331.426 505.185 331.204 506.611 330.762 507.926C330.319 509.228 329.668 510.367 328.809 511.344C327.962 512.307 326.921 513.056 325.684 513.59C324.447 514.124 323.027 514.391 321.426 514.391C319.824 514.391 318.398 514.124 317.148 513.59C315.911 513.056 314.863 512.307 314.004 511.344C313.158 510.367 312.513 509.228 312.07 507.926C311.628 506.611 311.406 505.185 311.406 503.648ZM317.031 503.238V503.648C317.031 504.534 317.109 505.361 317.266 506.129C317.422 506.897 317.669 507.574 318.008 508.16C318.359 508.733 318.815 509.182 319.375 509.508C319.935 509.833 320.618 509.996 321.426 509.996C322.207 509.996 322.878 509.833 323.438 509.508C323.997 509.182 324.447 508.733 324.785 508.16C325.124 507.574 325.371 506.897 325.527 506.129C325.697 505.361 325.781 504.534 325.781 503.648V503.238C325.781 502.379 325.697 501.572 325.527 500.816C325.371 500.048 325.117 499.371 324.766 498.785C324.427 498.186 323.978 497.717 323.418 497.379C322.858 497.04 322.181 496.871 321.387 496.871C320.592 496.871 319.915 497.04 319.355 497.379C318.809 497.717 318.359 498.186 318.008 498.785C317.669 499.371 317.422 500.048 317.266 500.816C317.109 501.572 317.031 502.379 317.031 503.238Z" fill="#FF0000"/>
<path d="M387.668 522.125V497.184L388.391 492.867H393.332V522.125H387.668ZM374.309 503.648V503.238C374.309 501.624 374.484 500.159 374.836 498.844C375.201 497.516 375.734 496.383 376.438 495.445C377.141 494.495 378 493.766 379.016 493.258C380.044 492.737 381.229 492.477 382.57 492.477C383.859 492.477 384.973 492.737 385.91 493.258C386.848 493.779 387.635 494.514 388.273 495.465C388.924 496.415 389.445 497.535 389.836 498.824C390.227 500.113 390.526 501.526 390.734 503.062V503.961C390.539 505.432 390.24 506.799 389.836 508.062C389.445 509.326 388.924 510.432 388.273 511.383C387.635 512.333 386.841 513.076 385.891 513.609C384.953 514.13 383.833 514.391 382.531 514.391C381.216 514.391 380.044 514.124 379.016 513.59C378 513.043 377.141 512.288 376.438 511.324C375.734 510.361 375.201 509.228 374.836 507.926C374.484 506.611 374.309 505.185 374.309 503.648ZM379.934 503.238V503.648C379.934 504.521 380.005 505.341 380.148 506.109C380.292 506.865 380.52 507.535 380.832 508.121C381.158 508.707 381.574 509.169 382.082 509.508C382.59 509.833 383.215 509.996 383.957 509.996C384.986 509.996 385.812 509.775 386.438 509.332C387.076 508.876 387.544 508.258 387.844 507.477C388.156 506.695 388.339 505.803 388.391 504.801V502.242C388.352 501.422 388.241 500.686 388.059 500.035C387.889 499.371 387.629 498.805 387.277 498.336C386.939 497.867 386.496 497.509 385.949 497.262C385.415 497.001 384.764 496.871 383.996 496.871C383.267 496.871 382.642 497.034 382.121 497.359C381.6 497.685 381.177 498.141 380.852 498.727C380.539 499.299 380.305 499.97 380.148 500.738C380.005 501.507 379.934 502.34 379.934 503.238ZM416.984 509.605V514H397.531V510.25L406.73 500.387C407.655 499.358 408.384 498.453 408.918 497.672C409.452 496.878 409.836 496.168 410.07 495.543C410.318 494.905 410.441 494.299 410.441 493.727C410.441 492.867 410.298 492.132 410.012 491.52C409.725 490.895 409.302 490.413 408.742 490.074C408.195 489.736 407.518 489.566 406.711 489.566C405.852 489.566 405.109 489.775 404.484 490.191C403.872 490.608 403.404 491.188 403.078 491.93C402.766 492.672 402.609 493.512 402.609 494.449H396.965C396.965 492.757 397.368 491.207 398.176 489.801C398.983 488.382 400.122 487.255 401.594 486.422C403.065 485.576 404.81 485.152 406.828 485.152C408.82 485.152 410.5 485.478 411.867 486.129C413.247 486.767 414.289 487.691 414.992 488.902C415.708 490.1 416.066 491.533 416.066 493.199C416.066 494.137 415.917 495.055 415.617 495.953C415.318 496.839 414.888 497.724 414.328 498.609C413.781 499.482 413.117 500.367 412.336 501.266C411.555 502.164 410.689 503.095 409.738 504.059L404.797 509.605H416.984ZM431.828 499.586V504H420.793V499.586H431.828ZM445.246 509.996C445.936 509.996 446.548 509.866 447.082 509.605C447.616 509.332 448.033 508.954 448.332 508.473C448.645 507.978 448.807 507.398 448.82 506.734H454.113C454.1 508.219 453.703 509.54 452.922 510.699C452.141 511.845 451.092 512.75 449.777 513.414C448.462 514.065 446.991 514.391 445.363 514.391C443.723 514.391 442.29 514.117 441.066 513.57C439.855 513.023 438.846 512.268 438.039 511.305C437.232 510.328 436.626 509.195 436.223 507.906C435.819 506.604 435.617 505.211 435.617 503.727V503.16C435.617 501.663 435.819 500.27 436.223 498.98C436.626 497.678 437.232 496.546 438.039 495.582C438.846 494.605 439.855 493.844 441.066 493.297C442.277 492.75 443.697 492.477 445.324 492.477C447.056 492.477 448.573 492.809 449.875 493.473C451.19 494.137 452.219 495.087 452.961 496.324C453.716 497.548 454.1 499 454.113 500.68H448.82C448.807 499.977 448.658 499.339 448.371 498.766C448.098 498.193 447.694 497.737 447.16 497.398C446.639 497.047 445.995 496.871 445.227 496.871C444.406 496.871 443.736 497.047 443.215 497.398C442.694 497.737 442.29 498.206 442.004 498.805C441.717 499.391 441.516 500.061 441.398 500.816C441.294 501.559 441.242 502.34 441.242 503.16V503.727C441.242 504.547 441.294 505.335 441.398 506.09C441.503 506.845 441.698 507.516 441.984 508.102C442.284 508.688 442.694 509.15 443.215 509.488C443.736 509.827 444.413 509.996 445.246 509.996ZM463.312 484V514H457.668V484H463.312ZM479.367 509.234V499.82C479.367 499.143 479.257 498.564 479.035 498.082C478.814 497.587 478.469 497.203 478 496.93C477.544 496.656 476.952 496.52 476.223 496.52C475.598 496.52 475.057 496.63 474.602 496.852C474.146 497.06 473.794 497.366 473.547 497.77C473.299 498.16 473.176 498.622 473.176 499.156H467.551C467.551 498.258 467.759 497.405 468.176 496.598C468.592 495.79 469.198 495.081 469.992 494.469C470.786 493.844 471.73 493.355 472.824 493.004C473.931 492.652 475.168 492.477 476.535 492.477C478.176 492.477 479.634 492.75 480.91 493.297C482.186 493.844 483.189 494.664 483.918 495.758C484.66 496.852 485.031 498.219 485.031 499.859V508.902C485.031 510.061 485.103 511.012 485.246 511.754C485.389 512.483 485.598 513.121 485.871 513.668V514H480.188C479.914 513.427 479.706 512.711 479.562 511.852C479.432 510.979 479.367 510.107 479.367 509.234ZM480.109 501.129L480.148 504.312H477.004C476.262 504.312 475.617 504.397 475.07 504.566C474.523 504.736 474.074 504.977 473.723 505.289C473.371 505.589 473.111 505.94 472.941 506.344C472.785 506.747 472.707 507.19 472.707 507.672C472.707 508.154 472.818 508.59 473.039 508.98C473.26 509.358 473.579 509.658 473.996 509.879C474.413 510.087 474.901 510.191 475.461 510.191C476.307 510.191 477.043 510.022 477.668 509.684C478.293 509.345 478.775 508.928 479.113 508.434C479.465 507.939 479.647 507.47 479.66 507.027L481.145 509.41C480.936 509.944 480.65 510.497 480.285 511.07C479.934 511.643 479.484 512.184 478.938 512.691C478.391 513.186 477.733 513.596 476.965 513.922C476.197 514.234 475.285 514.391 474.23 514.391C472.889 514.391 471.672 514.124 470.578 513.59C469.497 513.043 468.638 512.294 468 511.344C467.375 510.38 467.062 509.286 467.062 508.062C467.062 506.956 467.271 505.973 467.688 505.113C468.104 504.254 468.716 503.531 469.523 502.945C470.344 502.346 471.366 501.897 472.59 501.598C473.814 501.285 475.233 501.129 476.848 501.129H480.109ZM500.793 508.16C500.793 507.757 500.676 507.392 500.441 507.066C500.207 506.741 499.771 506.441 499.133 506.168C498.508 505.882 497.603 505.621 496.418 505.387C495.35 505.152 494.354 504.859 493.43 504.508C492.518 504.143 491.724 503.707 491.047 503.199C490.383 502.691 489.862 502.092 489.484 501.402C489.107 500.699 488.918 499.898 488.918 499C488.918 498.115 489.107 497.281 489.484 496.5C489.875 495.719 490.428 495.029 491.145 494.43C491.874 493.818 492.759 493.342 493.801 493.004C494.855 492.652 496.04 492.477 497.355 492.477C499.191 492.477 500.767 492.77 502.082 493.355C503.41 493.941 504.426 494.749 505.129 495.777C505.845 496.793 506.203 497.952 506.203 499.254H500.578C500.578 498.707 500.461 498.219 500.227 497.789C500.005 497.346 499.654 497.001 499.172 496.754C498.703 496.493 498.091 496.363 497.336 496.363C496.711 496.363 496.171 496.474 495.715 496.695C495.259 496.904 494.908 497.19 494.66 497.555C494.426 497.906 494.309 498.297 494.309 498.727C494.309 499.052 494.374 499.345 494.504 499.605C494.647 499.853 494.875 500.081 495.188 500.289C495.5 500.497 495.904 500.693 496.398 500.875C496.906 501.044 497.531 501.201 498.273 501.344C499.797 501.656 501.158 502.066 502.355 502.574C503.553 503.069 504.504 503.746 505.207 504.605C505.91 505.452 506.262 506.565 506.262 507.945C506.262 508.883 506.053 509.742 505.637 510.523C505.22 511.305 504.621 511.988 503.84 512.574C503.059 513.147 502.121 513.596 501.027 513.922C499.947 514.234 498.729 514.391 497.375 514.391C495.409 514.391 493.742 514.039 492.375 513.336C491.021 512.633 489.992 511.741 489.289 510.66C488.599 509.566 488.254 508.447 488.254 507.301H493.586C493.612 508.069 493.807 508.688 494.172 509.156C494.549 509.625 495.025 509.964 495.598 510.172C496.184 510.38 496.815 510.484 497.492 510.484C498.221 510.484 498.827 510.387 499.309 510.191C499.79 509.983 500.155 509.71 500.402 509.371C500.663 509.02 500.793 508.616 500.793 508.16ZM521.34 508.16C521.34 507.757 521.223 507.392 520.988 507.066C520.754 506.741 520.318 506.441 519.68 506.168C519.055 505.882 518.15 505.621 516.965 505.387C515.897 505.152 514.901 504.859 513.977 504.508C513.065 504.143 512.271 503.707 511.594 503.199C510.93 502.691 510.409 502.092 510.031 501.402C509.654 500.699 509.465 499.898 509.465 499C509.465 498.115 509.654 497.281 510.031 496.5C510.422 495.719 510.975 495.029 511.691 494.43C512.421 493.818 513.306 493.342 514.348 493.004C515.402 492.652 516.587 492.477 517.902 492.477C519.738 492.477 521.314 492.77 522.629 493.355C523.957 493.941 524.973 494.749 525.676 495.777C526.392 496.793 526.75 497.952 526.75 499.254H521.125C521.125 498.707 521.008 498.219 520.773 497.789C520.552 497.346 520.201 497.001 519.719 496.754C519.25 496.493 518.638 496.363 517.883 496.363C517.258 496.363 516.717 496.474 516.262 496.695C515.806 496.904 515.454 497.19 515.207 497.555C514.973 497.906 514.855 498.297 514.855 498.727C514.855 499.052 514.921 499.345 515.051 499.605C515.194 499.853 515.422 500.081 515.734 500.289C516.047 500.497 516.451 500.693 516.945 500.875C517.453 501.044 518.078 501.201 518.82 501.344C520.344 501.656 521.704 502.066 522.902 502.574C524.1 503.069 525.051 503.746 525.754 504.605C526.457 505.452 526.809 506.565 526.809 507.945C526.809 508.883 526.6 509.742 526.184 510.523C525.767 511.305 525.168 511.988 524.387 512.574C523.605 513.147 522.668 513.596 521.574 513.922C520.493 514.234 519.276 514.391 517.922 514.391C515.956 514.391 514.289 514.039 512.922 513.336C511.568 512.633 510.539 511.741 509.836 510.66C509.146 509.566 508.801 508.447 508.801 507.301H514.133C514.159 508.069 514.354 508.688 514.719 509.156C515.096 509.625 515.572 509.964 516.145 510.172C516.73 510.38 517.362 510.484 518.039 510.484C518.768 510.484 519.374 510.387 519.855 510.191C520.337 509.983 520.702 509.71 520.949 509.371C521.21 509.02 521.34 508.616 521.34 508.16ZM529.562 503.648V503.238C529.562 501.689 529.784 500.263 530.227 498.961C530.669 497.646 531.314 496.507 532.16 495.543C533.007 494.579 534.048 493.831 535.285 493.297C536.522 492.75 537.941 492.477 539.543 492.477C541.145 492.477 542.57 492.75 543.82 493.297C545.07 493.831 546.118 494.579 546.965 495.543C547.824 496.507 548.475 497.646 548.918 498.961C549.361 500.263 549.582 501.689 549.582 503.238V503.648C549.582 505.185 549.361 506.611 548.918 507.926C548.475 509.228 547.824 510.367 546.965 511.344C546.118 512.307 545.077 513.056 543.84 513.59C542.603 514.124 541.184 514.391 539.582 514.391C537.98 514.391 536.555 514.124 535.305 513.59C534.068 513.056 533.02 512.307 532.16 511.344C531.314 510.367 530.669 509.228 530.227 507.926C529.784 506.611 529.562 505.185 529.562 503.648ZM535.188 503.238V503.648C535.188 504.534 535.266 505.361 535.422 506.129C535.578 506.897 535.826 507.574 536.164 508.16C536.516 508.733 536.971 509.182 537.531 509.508C538.091 509.833 538.775 509.996 539.582 509.996C540.363 509.996 541.034 509.833 541.594 509.508C542.154 509.182 542.603 508.733 542.941 508.16C543.28 507.574 543.527 506.897 543.684 506.129C543.853 505.361 543.938 504.534 543.938 503.648V503.238C543.938 502.379 543.853 501.572 543.684 500.816C543.527 500.048 543.273 499.371 542.922 498.785C542.583 498.186 542.134 497.717 541.574 497.379C541.014 497.04 540.337 496.871 539.543 496.871C538.749 496.871 538.072 497.04 537.512 497.379C536.965 497.717 536.516 498.186 536.164 498.785C535.826 499.371 535.578 500.048 535.422 500.816C535.266 501.572 535.188 502.379 535.188 503.238Z" fill="#0000FF"/>
<defs>
<clipPath id="clip0_1070_478">
<rect width="300" height="300" fill="white" transform="translate(182 166)"/>
</clipPath>
</defs>
</svg>
